<svg width="512" height="512" viewBox="0 0 512 512" fill="none" xmlns="http://www.w3.org/2000/svg">
<rect width="512" height="512" rx="100" fill="white"/>
<path d="M223.245 255.518C224.135 254.967 256.983 207.554 281.742 171.082L289.944 159L303.151 178.2C310.415 188.76 325.378 210.613 336.403 226.763C347.428 242.913 356.748 256.123 357.114 256.12C357.48 256.118 368.45 240.517 381.491 221.452C408.427 182.071 410.495 179.458 417.046 176.479C423.004 173.77 434.267 173.602 439.615 176.141C445.008 178.702 451.182 184.918 453.819 190.441C456.709 196.496 456.73 207.837 453.863 213.416C452.689 215.7 437.812 237.855 420.803 262.65C403.794 287.445 382.797 318.142 374.143 330.866C365.49 343.59 357.855 354 357.178 354C356.26 354 310.514 288.778 291.816 260.814C290.747 259.213 289.637 258.172 289.351 258.498C288.663 259.284 243.821 324.801 234.138 339.17C221.685 357.648 225.176 358.908 204.036 328.306C193.966 313.728 179.092 292.068 170.983 280.174C162.874 268.279 155.973 258.556 155.647 258.565C155.321 258.575 144.385 274.163 131.344 293.205C118.303 312.247 106.084 329.611 104.189 331.79C91.4783 346.41 67.8092 343.464 59.0528 326.171C55.814 319.777 55.0327 310.004 57.2864 304.073C57.9586 302.303 78.1529 272.238 102.161 237.263C126.168 202.288 147.834 170.603 150.304 166.851C152.776 163.1 155.222 160.03 155.741 160.03C156.259 160.03 171.429 181.657 189.452 208.09C207.474 234.525 222.681 255.867 223.245 255.518Z" fill="#F54900"/>
</svg>
