<svg width="512" height="512" viewBox="0 0 512 512" fill="none" xmlns="http://www.w3.org/2000/svg">
<path fill-rule="evenodd" clip-rule="evenodd" d="M241.277 56.3392C206.222 59.1821 174.032 70.2212 145.923 89.0381C99.4567 120.144 68.8807 166.518 58.8688 221.07C54.2961 245.983 55.2425 277.349 61.3315 302.674C70.0199 338.817 88.5273 371.868 114.548 397.708C145.743 428.686 183.078 447.581 226.524 454.379C235.45 455.776 239.719 456.01 256.03 456C272.131 455.989 276.727 455.736 285.536 454.377C297.277 452.566 311.033 449.138 322.184 445.245C362.111 431.305 398.395 403.121 422.184 367.567C452.472 322.3 462.959 267.248 451.434 214.027C432.842 128.177 360.46 64.2071 273.302 56.5986C265.661 55.9315 248.063 55.7888 241.277 56.3392ZM237.679 92.0041C215.997 94.4536 190.91 102.811 172.272 113.792C129.418 139.039 99.9123 183.058 92.6308 232.603C91.0439 243.398 90.7467 262.559 91.9881 274.002C95.318 304.701 107.659 334.795 127.042 359.479C129.24 362.278 135.116 368.648 140.1 373.635C165.315 398.867 197.54 414.93 233.129 420.01C244.296 421.603 267.9 421.623 278.34 420.047C297.43 417.166 313.857 412.019 330.255 403.781C379.893 378.845 413.6 330.335 420.075 274.514C421.808 259.579 420.576 236.861 417.175 221.062C412.128 197.61 399.864 171.963 384.514 152.762C379.295 146.232 367.155 133.933 360.74 128.675C335.563 108.038 305.554 95.447 273.15 91.9249C264.949 91.033 245.894 91.0755 237.679 92.0041ZM271.403 203.779C256.374 225.928 236.434 254.72 235.894 255.054C235.551 255.266 226.32 242.306 215.38 226.253C204.44 210.201 195.231 197.068 194.916 197.068C194.601 197.068 193.116 198.932 191.616 201.21C190.116 203.488 176.965 222.73 162.391 243.969C147.818 265.208 135.559 283.465 135.151 284.54C133.783 288.141 134.257 294.076 136.223 297.959C141.539 308.46 155.907 310.249 163.623 301.371C164.773 300.048 172.19 289.503 180.107 277.94C188.023 266.376 194.662 256.91 194.86 256.905C195.057 256.899 199.247 262.803 204.169 270.027C209.091 277.25 218.12 290.402 224.233 299.255C237.066 317.839 234.947 317.073 242.506 305.853C248.384 297.127 275.604 257.341 276.022 256.864C276.196 256.665 276.869 257.298 277.519 258.27C288.869 275.252 316.638 314.858 317.195 314.858C317.606 314.858 322.241 308.536 327.494 300.81C332.747 293.083 345.493 274.442 355.818 259.385C366.143 244.328 375.174 230.874 375.886 229.487C377.627 226.099 377.614 219.212 375.86 215.535C374.259 212.182 370.511 208.407 367.238 206.851C363.991 205.31 357.154 205.412 353.537 207.057C349.561 208.866 348.305 210.453 331.954 234.367C324.038 245.945 317.379 255.418 317.157 255.42C316.934 255.421 311.277 247.399 304.584 237.592C297.892 227.785 288.809 214.515 284.399 208.102L276.382 196.443L271.403 203.779Z" fill="#F54900"/>
</svg>
